<?xml version="1.0" encoding="UTF-8"?>
<svg id="Layer_2" data-name="Layer 2" xmlns="http://www.w3.org/2000/svg" viewBox="0 0 928 236.52">
  <defs>
    <style>
      .cls-1 {
        letter-spacing: 0em;
      }

      .cls-2 {
        font-family: KeplerStd-LightDisp, 'Kepler Std';
        font-size: 177.73px;
        font-weight: 300;
      }

      .cls-2, .cls-3 {
        fill: #231f20;
      }

      .cls-4 {
        letter-spacing: -.03em;
      }

      .cls-5 {
        letter-spacing: .07em;
      }

      .cls-6 {
        letter-spacing: -.03em;
      }

      .cls-7 {
        letter-spacing: .07em;
      }

      .cls-8 {
        fill: #345d9d;
      }

      .cls-9 {
        letter-spacing: .05em;
      }

      .cls-10 {
        letter-spacing: -.03em;
      }

      .cls-11 {
        letter-spacing: 0em;
      }

      .cls-12 {
        letter-spacing: .03em;
      }

      .cls-13 {
        letter-spacing: .02em;
      }

      .cls-14 {
        letter-spacing: .02em;
      }

      .cls-15 {
        letter-spacing: .05em;
      }

      .cls-16 {
        letter-spacing: 0em;
      }

      .cls-17 {
        letter-spacing: -.01em;
      }

      .cls-18 {
        fill: #d05559;
      }

      .cls-19 {
        letter-spacing: .05em;
      }

      .cls-20 {
        letter-spacing: .02em;
      }

      .cls-21 {
        letter-spacing: .07em;
      }

      .cls-22 {
        letter-spacing: .02em;
      }

      .cls-3 {
        font-family: KeplerStd-Regular, 'Kepler Std';
        font-size: 63.39px;
      }

      .cls-23 {
        letter-spacing: .04em;
      }

      .cls-24 {
        letter-spacing: 0em;
      }

      .cls-25 {
        letter-spacing: .07em;
      }

      .cls-26 {
        letter-spacing: .05em;
      }
    </style>
  </defs>
  <g id="Layer_1-2" data-name="Layer 1">
    <g>
      <g>
        <text class="cls-2" transform="translate(346.83 146.98)"><tspan class="cls-6" x="0" y="0">P</tspan><tspan class="cls-10" x="83.89" y="0">r</tspan><tspan class="cls-17" x="134.36" y="0">a</tspan><tspan x="207.23" y="0">c</tspan><tspan class="cls-1" x="279.39" y="0">t</tspan><tspan class="cls-4" x="333.42" y="0">i</tspan><tspan class="cls-11" x="366.83" y="0">c</tspan><tspan class="cls-16" x="439.34" y="0">a</tspan><tspan x="515.41" y="0">l </tspan></text>
        <text class="cls-3" transform="translate(346.27 214.92)"><tspan class="cls-26" x="0" y="0">C</tspan><tspan class="cls-7" x="42.47" y="0">l</tspan><tspan class="cls-19" x="63.01" y="0">e</tspan><tspan class="cls-25" x="94.84" y="0">a</tspan><tspan class="cls-12" x="129.89" y="0">n</tspan><tspan class="cls-9" x="166.6" y="0">i</tspan><tspan class="cls-15" x="186.63" y="0">n</tspan><tspan class="cls-5" x="224.6" y="0">g</tspan></text>
        <text class="cls-3" transform="translate(634.09 215.4)"><tspan class="cls-13" x="0" y="0">C</tspan><tspan class="cls-20" x="40.45" y="0">o</tspan><tspan class="cls-24" x="73.98" y="0">m</tspan><tspan class="cls-14" x="126.91" y="0">p</tspan><tspan class="cls-21" x="161.97" y="0">a</tspan><tspan class="cls-22" x="196.71" y="0">n</tspan><tspan class="cls-23" x="232.84" y="0">y</tspan></text>
      </g>
      <g>
        <path class="cls-8" d="M244.03,23.11c3.1-.95,6.15-2.13,9.32-2.8,16.03-3.4,28.95,2.05,39.16,14.4,7.43,8.99,11.51,19.49,13.01,31.02.88,6.74.6,13.41-1.09,20.02-2.41,9.46-8.12,16.42-16.18,21.68-7.83,5.11-16.36,8.7-25.14,11.77-13.63,4.78-27.64,8.15-41.7,11.34-13.48,3.06-26.97,6.08-40.43,9.24-3.58.84-7.05,2.09-10.79,3.23-.01,0-.02,0-.03,0-1.11.21-9.16,5.41-9.25,5.52-5.95,4.43-10.7,9.84-14.85,15.82-4.14,5.96-7.51,12.33-10.35,19.01.82-7.25,2.53-14.27,5.14-21.06,2.62-6.8,6.11-13.12,10.6-19.14.03-.05.06-.09.09-.14,1.21-2.39,8.88-10.14,9.29-10.42,2.04-1.72,4.01-3.47,6.06-5.12,8.64-6.95,18.19-12.42,28.27-16.92,8.54-3.81,17.26-7.2,25.84-10.9,14.42-6.22,27.17-14.88,37.72-26.58,5.58-6.19,10.2-13.01,12.42-21.18,2.25-8.27.96-15.93-4.4-22.71-3.12-3.94-7.42-5.81-12.34-6.41-3.47-.42-6.88,0-10.27.72-.03-.13-.07-.27-.1-.4Z"/>
        <path class="cls-8" d="M154.72,143.28c8.81,12.22,13.84,25.56,15.67,40.2-5.81-13.52-13.35-25.78-25.19-35.04-5.8-3.81-10.8-5.66-15.99-7.58-9.46-3.51-19.59-4.86-29.44-7.06-18.4-4.1-36.87-7.94-54.77-13.98-9.59-3.23-18.95-7-27.44-12.64-6.44-4.28-11.6-9.63-14.46-16.97C.89,84.56-.09,78.69,0,72.67c.21-12.76,3.85-24.48,11.15-34.98,5.01-7.2,11.37-12.83,19.64-16.04,9.03-3.5,18.09-3.06,27.13.02,1.19.4,2.35.9,3.52,1.36.18.07.34.18.64.34-1.89-.26-3.61-.54-5.35-.72-10.38-1.06-18.39,4.2-21.64,14.13-2.11,6.45-1.38,12.73,1.06,18.9,2.97,7.52,7.7,13.87,13.28,19.61,11.25,11.58,24.58,20.01,39.57,25.93,11.55,4.56,23.07,9.21,33.92,15.33,7.78,4.38,15.1,9.39,21.64,15.5.15.14,7.98,8.76,9.61,10.55.2.22.38.44.55.68Z"/>
        <path class="cls-18" d="M15.18,107.26c8.55,9.63,19.66,15.12,31.31,19.69,13.42,5.27,27.35,8.85,41.44,11.76,12.65,2.62,25.37,4.91,38.04,7.45,4.46.89,8.87,2.04,13.28,3.18,1.3.34,2.52,1.02,3.67,1.5-1.93,4.94-3.77,9.67-5.75,14.74-.1-.23-.15-.49-.3-.65-4.2-4.78-9.62-7.2-15.82-8.07-6.41-.9-12.81-.38-19.2.22-8.31.78-16.62,1.69-24.98,1.5-8.27-.18-16.39-1.15-23.93-4.96-7.24-3.67-13.29-8.83-18.6-14.89-8.03-9.17-14.12-19.54-18.91-30.72-.1-.24-.18-.5-.27-.75Z"/>
        <path class="cls-18" d="M291.13,108.28c-3.65,8.6-8.21,16.65-13.77,24.13-5.04,6.77-10.77,12.84-17.71,17.7-7.17,5.01-15.11,7.73-23.83,8.38-8.44.63-16.82.02-25.21-.84-6.26-.64-12.53-1.21-18.82-1.61-3.77-.24-7.53.15-11.23,1.07-4.55,1.13-8.45,3.34-11.7,6.71-.27.28-.54.54-.75.75-1.78-4.79-3.55-9.56-5.37-14.43,1.68-1.18,3.77-1.79,5.87-2.2,8.4-1.66,16.8-3.31,25.23-4.78,16.37-2.86,32.74-5.69,48.78-10.12,11.77-3.25,23.3-7.12,33.96-13.22,5.43-3.11,10.41-6.8,14.56-11.53Z"/>
        <path class="cls-8" d="M122.55,108.91c4.23-10.94,7.7-22.01,14.28-31.69,2.66-3.91,5.67-7.56,10.14-9.43,6.52-2.74,13.23-3.38,19.96-.63,3.02,1.24,5.33,3.34,6.98,6.18.25.43.86.8,1.37.92,4.68,1.07,9.43,1.89,14.05,3.16,5.41,1.48,6.08,6.06,4.3,10.24-1.67,3.91-6.4,8.04-10.64,9.33.78-1.27,1.67-2.49,2.33-3.82,1.56-3.14.36-5.12-3.16-5.36-4.11-.28-8.08.62-12.03,1.58-1.55.38-3.09.82-4.88,1.3,6.32,5.65,12.05,11.56,17.27,18.23-10.61,5.12-20.7,10.88-29.98,18.06-9.29-7.2-19.35-12.94-29.99-18.07ZM156.49,76.32c3.11.81,6.21,1.63,9.33,2.39.34.08,1.11-.23,1.11-.32-.09-1.49,1.07-1.52,2.06-1.8-4.15-.62-8.18-2.56-12.49-.28Z"/>
        <path class="cls-18" d="M194.21,215.22c-9.3,3.62-20.33,2.35-26.58-7.98-3.68-6.08-5.66-12.65-5.88-19.77-.05-1.76-.26-3.53-.58-5.27-.57-3.13-2.45-5.47-5.17-7.59.55.08.78.1,1,.16.23.06.45.14.67.22,7.03,2.66,11.89,7.63,15.16,14.27,2.2,4.48,4.36,8.98,6.61,13.43.74,1.47,1.63,2.87,2.57,4.23,2.92,4.23,6.43,7.66,12.21,8.29Z"/>
        <path class="cls-18" d="M150.43,174.34c-.63.59-1.27,1.16-1.89,1.76-2.65,2.57-3.6,5.85-3.76,9.4-.33,7.05-1.9,13.74-5.39,19.95-3.19,5.66-7.51,9.85-14.04,11.34-4.5,1.02-8.9.53-13.24-.88-.1-.03-.17-.14-.33-.28,5.32-.64,9.01-3.75,11.75-7.93,2.47-3.77,4.55-7.8,6.67-11.78,2.17-4.09,3.87-8.44,6.73-12.14,3.51-4.53,7.93-7.78,13.51-9.44Z"/>
        <path class="cls-18" d="M158.54,149.68l-2.72-4.4-2.72-4.4-2.82,4.34-2.82,4.34.4.42,2.57,2.51s.05.05.07.07l2.51,3.31,2.48-3.3s.06-.08.1-.11l2.21-2.15s.02-.02.03-.03l.73-.6Z"/>
      </g>
    </g>
  </g>
</svg>